<?xml version="1.0" standalone="no"?>
<!DOCTYPE svg PUBLIC "-//W3C//DTD SVG 20010904//EN"
 "http://www.w3.org/TR/2001/REC-SVG-20010904/DTD/svg10.dtd">
<svg version="1.0" xmlns="http://www.w3.org/2000/svg"
 width="700.000000pt" height="700.000000pt" viewBox="0 0 700.000000 700.000000"
 preserveAspectRatio="xMidYMid meet">
<metadata>
Created by potrace 1.14, written by Peter Selinger 2001-2017
</metadata>
<g transform="translate(0.000000,700.000000) scale(0.100000,-0.100000)"
fill="#000000" stroke="none">
<path d="M4988 6125 c-2 -2 -31 -6 -66 -9 -145 -15 -203 -42 -1262 -578 -195
-99 -391 -198 -435 -220 -44 -22 -88 -44 -98 -49 -9 -5 -295 -149 -635 -321
-1176 -593 -1110 -556 -1228 -673 -194 -193 -287 -430 -279 -710 7 -245 98
-460 270 -636 85 -87 146 -124 255 -153 52 -15 104 -30 115 -35 11 -5 65 -23
120 -40 364 -117 748 -299 1036 -492 253 -169 553 -444 818 -749 94 -109 108
-125 155 -185 22 -28 44 -55 50 -60 6 -6 31 -35 56 -65 24 -30 50 -58 57 -63
6 -4 18 -13 25 -20 85 -84 320 -185 469 -201 67 -8 194 -8 234 -1 54 9 100 18
113 22 6 1 18 5 25 6 6 2 26 7 42 12 101 26 302 152 386 242 80 86 177 235
198 306 5 17 17 51 25 74 9 23 18 55 21 70 2 15 7 39 10 53 2 13 7 42 10 65 3
22 8 47 10 55 2 8 7 39 10 68 3 29 10 76 16 105 5 28 12 70 15 92 2 22 7 51 9
65 2 14 6 43 10 65 3 23 8 52 11 65 2 14 7 43 10 65 3 22 14 96 25 165 11 69
22 139 25 155 2 17 6 41 9 55 2 14 7 43 10 65 3 23 7 50 9 60 2 11 7 40 10 65
3 25 8 54 10 65 2 11 9 56 16 100 6 44 13 91 16 105 2 14 7 41 10 60 3 19 9
60 14 90 5 30 12 73 15 95 3 22 10 65 15 95 5 30 12 75 15 100 3 25 10 70 15
100 5 30 12 73 15 95 3 22 10 67 16 100 6 33 13 76 15 95 3 19 9 62 14 95 5
33 12 78 15 100 3 22 10 63 15 90 5 28 12 68 15 90 3 22 7 51 10 65 2 14 20
129 39 255 20 127 38 239 40 251 2 12 7 45 11 74 4 29 9 62 11 74 6 33 6 175
-1 235 -15 123 -78 292 -149 401 -47 71 -134 168 -196 217 -30 24 -61 48 -68
54 -6 5 -45 27 -85 49 -130 70 -275 108 -434 114 -40 2 -74 2 -75 1z"/>
</g>
</svg>
