<svg viewBox="0 0 748 211" fill="none" xmlns="http://www.w3.org/2000/svg">
  <g clip-path="url(#clip0_11_2)">
    <path
      d="M201.181 211C205.429 211 208.872 207.56 208.872 203.316C208.872 199.072 205.429 195.631 201.181 195.631C196.934 195.631 193.49 199.072 193.49 203.316C193.49 207.56 196.934 211 201.181 211Z"
      fill="url(#paint0_linear_11_2)" />
    <path
      d="M172.23 198.442C177.835 198.442 182.379 193.901 182.379 188.3C182.379 182.7 177.835 178.159 172.23 178.159C166.624 178.159 162.08 182.7 162.08 188.3C162.08 193.901 166.624 198.442 172.23 198.442Z"
      fill="url(#paint1_linear_11_2)" />
    <path
      d="M137.881 182.946C144.844 182.946 150.489 177.306 150.489 170.349C150.489 163.391 144.844 157.751 137.881 157.751C130.917 157.751 125.272 163.391 125.272 170.349C125.272 177.306 130.917 182.946 137.881 182.946Z"
      fill="url(#paint2_linear_11_2)" />
    <path
      d="M108.058 140.845L96.6083 134.803C90.4591 131.558 82.8414 133.908 79.5938 140.052C76.3462 146.196 78.6984 153.807 84.8476 157.052L96.2974 163.094C102.447 166.339 110.064 163.989 113.312 157.845C116.559 151.701 114.207 144.089 108.058 140.845Z"
      fill="url(#paint3_linear_11_2)" />
    <path
      d="M61.5257 116.468L18.296 93.6559C12.2237 90.4516 4.70122 92.7725 1.4942 98.8397C-1.71282 104.907 0.610006 112.423 6.68238 115.627L49.9121 138.439C55.9844 141.643 63.5069 139.322 66.7139 133.255C69.9209 127.188 67.5981 119.672 61.5257 116.468Z"
      fill="url(#paint4_linear_11_2)" />
    <path
      d="M46.8079 73.878L6.94345 93.4253C0.778602 96.4482 -1.76637 103.892 1.2591 110.052C4.28456 116.211 11.7348 118.754 17.8996 115.731L57.7641 96.184C63.9289 93.1611 66.4739 85.7172 63.4484 79.5576C60.4229 73.398 52.9727 70.8551 46.8079 73.878Z"
      fill="url(#paint5_linear_11_2)" />
    <path
      d="M195.261 1.27314L82.4688 56.5802C76.304 59.6031 73.759 67.047 76.7845 73.2066C79.81 79.3663 87.2602 81.9091 93.425 78.8862L206.217 23.5791C212.382 20.5562 214.927 13.1123 211.902 6.95266C208.876 0.79305 201.426 -1.74976 195.261 1.27314Z"
      fill="url(#paint6_linear_11_2)" />
    <path
      d="M596.092 135.88C596.044 137.16 595.892 137.825 595.541 138.527C594.243 141.144 590.053 142.012 587.221 141.708C581.46 141.091 578.518 135.335 578.243 134.765C572.277 139.381 564.707 142.006 557.269 142.006C556.659 142.006 556.049 141.986 555.454 141.958C555.414 141.958 555.369 141.953 555.333 141.953C554.22 141.88 553.119 141.759 552.025 141.574C557.977 138.673 563.142 134.4 567.081 129.155C570.442 124.703 572.923 119.556 574.269 113.961C574.275 113.941 574.283 113.916 574.289 113.896C575.045 111.479 575.435 108.798 575.435 105.956V94.3664C574.899 93.6365 574.328 92.943 573.713 92.2944C569.742 88.0746 564.285 85.7022 558.345 85.7022C552.405 85.7022 548.215 87.4429 545.192 90.8738C544.773 91.3511 544.382 91.8592 544.017 92.3983C543.028 93.8611 542.241 95.5512 541.665 97.4408V97.3622C541.665 85.6853 547.81 75.446 557.053 69.6904H557.117C557.356 69.682 557.595 69.682 557.834 69.682C558.747 69.682 559.663 69.7157 560.585 69.7887C565.78 70.1677 571.013 71.622 575.95 74.059C576.068 73.1718 576.439 72.2172 577.473 71.535C578.4 70.9314 579.4 70.9314 579.881 70.9314L587.378 70.9594C588.066 70.965 589.677 70.9678 590.758 72.2565C591.601 73.2645 591.601 74.4886 591.599 75.0782L591.514 121.098C591.562 121.774 591.559 122.322 591.542 122.695C591.542 122.695 591.514 123.675 591.663 124.927C591.669 124.972 591.672 125.006 591.677 125.045C591.697 125.183 591.736 125.463 591.93 125.562C592.068 125.629 592.183 125.556 592.472 125.536C592.472 125.536 592.672 125.517 593.088 125.581C594.428 125.795 595.496 126.834 595.878 128.302C596.044 128.956 596.052 129.568 596.058 130.062C596.064 130.214 596.064 130.326 596.072 130.427C596.151 132.235 596.156 134.069 596.092 135.88Z"
      fill="#401F74" />
    <path
      d="M574.269 113.958C572.924 119.553 570.439 124.7 567.082 129.153C563.142 134.397 557.974 138.67 552.026 141.571C550.986 141.399 549.963 141.175 548.949 140.903C542.168 139.089 536 135.102 531.74 129.63C526.005 122.263 523.425 111.807 524.659 100.942C525.553 93.0132 528.278 86.1317 532.53 81.0247C537.52 75.0361 544.987 71.0689 553.206 69.988C553.757 69.9206 554.313 69.856 554.875 69.8139C555.597 69.7465 556.325 69.7072 557.055 69.696C547.813 75.4516 541.668 85.6909 541.668 97.3678V97.4464C541.64 97.539 541.615 97.6317 541.589 97.7243C540.873 100.167 540.507 102.935 540.507 105.959C540.507 112.31 542.205 117.557 545.408 121.126C548.398 124.456 552.686 126.219 557.817 126.219C558.233 126.219 558.646 126.21 559.045 126.185C563.015 125.955 566.455 124.61 569.136 122.238C569.658 121.786 570.15 121.283 570.614 120.747C572.218 118.88 573.457 116.575 574.272 113.964L574.269 113.958Z"
      fill="url(#paint7_linear_11_2)" />
    <path
      d="M184.681 136.351C186.308 136.596 187.974 136.722 189.669 136.722C189.725 136.722 189.778 136.722 189.834 136.722C188.061 136.708 186.342 136.584 184.681 136.351Z"
      fill="#401F74" />
    <path
      d="M168.082 141.422C161.692 140.512 156.011 138.331 151.273 134.97C156.247 138.238 161.945 140.487 168.082 141.422Z"
      fill="#401F74" />
    <path
      d="M205.022 131.404L201.903 133.645C194.699 138.822 183.964 141.91 173.191 141.91C173.056 141.91 172.924 141.91 172.792 141.91C170.535 141.894 168.346 141.736 166.236 141.439C166.2 141.436 166.163 141.428 166.124 141.422C159.99 140.487 154.288 138.238 149.314 134.97C149.309 134.967 149.303 134.962 149.295 134.959C148.008 134.044 146.791 133.038 145.647 131.952C138.839 125.461 135.242 116.398 135.242 105.74C135.242 93.8161 139.932 84.0485 147.994 77.6808C144.2 82.8496 141.961 89.2285 141.961 96.1296C141.961 113.38 155.954 127.364 173.219 127.364C176.212 127.364 179.106 126.946 181.843 126.157C185.277 125.382 188.834 124.018 191.973 121.701C193.142 120.839 194.524 120.382 195.974 120.382C198.189 120.382 200.265 121.465 201.524 123.285L204.444 127.505L205.447 128.953C205.995 129.748 205.804 130.848 205.022 131.407V131.404Z"
      fill="#401F74" />
    <path
      d="M204.494 82.1112L202.37 84.8374L199.866 88.0521C198.576 89.7114 196.626 90.6632 194.524 90.6632C193.147 90.6632 191.821 90.2477 190.686 89.4644C186.075 86.2861 179.671 84.3882 173.553 84.3882C160.619 84.3882 151.928 92.9682 151.928 105.737C151.928 118.506 160.029 127.086 173.07 127.086C175.61 127.086 178.676 126.87 181.846 126.154C179.106 126.94 176.212 127.361 173.222 127.361C155.96 127.361 141.963 113.38 141.963 96.1268C141.963 89.2257 144.203 82.8496 147.996 77.678C154.561 72.4924 163.356 69.564 173.677 69.564C179.387 69.564 187.539 70.5243 195.96 74.702C197.433 75.4291 198.911 76.2574 200.389 77.1951L204.047 79.5198C204.469 79.7865 204.758 80.2217 204.845 80.7159C204.932 81.2072 204.803 81.7154 204.497 82.1084L204.494 82.1112Z"
      fill="url(#paint8_linear_11_2)" />
    <path
      d="M282.663 124.798C276.478 135.436 264.684 141.694 249.26 141.694C226.044 141.694 211.042 127.51 211.042 105.558C211.042 83.6049 226.044 69.4209 249.26 69.4209C251.14 69.4209 252.967 69.5107 254.734 69.696C238.661 71.7877 226.246 85.5225 226.246 102.155C226.246 104.216 226.437 106.226 226.8 108.177C226.839 108.604 226.887 109.025 226.946 109.435C226.907 109.14 226.873 108.837 226.848 108.531C227.491 111.998 228.711 115.263 230.405 118.22C230.473 118.318 230.551 118.416 230.627 118.515C236.289 128.302 246.877 134.889 259.005 134.889C268.309 134.889 276.7 131.017 282.663 124.795V124.798Z"
      fill="#401F74" />
    <path
      d="M287.476 105.56C287.476 112.93 285.787 119.424 282.66 124.798C276.697 131.017 268.303 134.889 259.002 134.889C246.874 134.889 236.284 128.302 230.621 118.515C234.353 123.229 240.664 125.722 249.255 125.722C263.813 125.722 271.833 118.562 271.833 105.558C271.833 92.5527 263.816 85.3933 249.255 85.3933C234.693 85.3933 226.679 92.5527 226.679 105.558C226.679 106.459 226.718 107.335 226.794 108.18C226.429 106.229 226.241 104.216 226.241 102.158C226.241 85.5253 238.655 71.7905 254.728 69.6988C274.803 71.7708 287.473 85.3849 287.473 105.56H287.476Z"
      fill="url(#paint9_linear_11_2)" />
    <path
      d="M342.535 74.3257C329.769 74.5082 318.858 82.3471 314.196 93.4568C312.429 96.8315 311.487 101.15 311.487 106.259V139.443C311.487 140.42 310.692 141.217 309.712 141.217H298.365C297.387 141.217 296.589 140.422 296.589 139.443V72.8574C296.589 71.8803 297.384 71.083 298.365 71.083H309.133C310.088 71.083 310.869 71.8326 310.906 72.7872L310.968 74.4465L310.973 74.6262C315.663 71.4086 321.522 69.7802 328.429 69.7802C330.992 69.7802 332.481 70.0582 333.779 70.3417C335.001 70.5242 336.204 70.8331 337.353 71.2626C339.155 71.9365 340.829 72.8995 342.333 74.1292C342.406 74.191 342.476 74.2556 342.538 74.3257H342.535Z"
      fill="#401F74" />
    <path
      d="M342.639 76.5578L336.297 85.1491C335.965 85.6011 335.429 85.8678 334.869 85.8678H334.751L334.574 85.8425L331.59 85.3484C331.278 85.2951 329.825 85.1013 328.426 85.1013C321.913 85.1013 317.009 88.0858 314.196 93.4568C318.858 82.3471 329.769 74.5082 342.535 74.3258C343.086 74.9406 343.142 75.8727 342.639 76.5578Z"
      fill="url(#paint10_linear_11_2)" />
    <path
      d="M443.866 150.684C444.136 150.684 444.403 150.679 444.67 150.67C444.453 150.681 444.234 150.687 444.012 150.687C443.973 150.687 443.925 150.687 443.866 150.687V150.684Z"
      fill="#401F74" />
    <path
      d="M509.058 65.4088C509.555 65.8524 510.182 66.164 510.887 66.2735C512.843 66.5796 514.695 65.2319 515.001 63.2778L516.993 50.5874C517.193 49.3212 516.695 48.1027 515.791 47.3138C514.72 46.376 513.141 46.1205 511.795 46.7972L499.931 52.7521C498.161 53.6393 497.441 55.8124 498.329 57.5812C498.599 58.1202 498.99 58.561 499.45 58.8895C499.45 58.8895 499.456 58.8923 499.459 58.8951C499.49 58.9176 499.524 58.9401 499.554 58.9597C499.594 58.985 502.516 59.6644 504.826 61.2339C507.155 62.8146 508.875 65.2853 509.058 65.4088Z"
      fill="#401F74" />
    <path
      d="M513.621 134.369V148.185C513.621 159.295 508.052 166.331 499.018 166.775C499.006 166.775 498.998 166.775 498.984 166.775C498.624 166.786 498.262 166.794 497.899 166.794C497.896 166.794 497.894 166.794 497.888 166.794C497.11 166.783 495.244 166.707 493.597 166.236L490.734 165.419C489.908 165.183 489.332 164.419 489.332 163.56V154.646V153.037C489.332 151.97 490.2 151.103 491.262 151.103C491.355 151.103 491.445 151.108 491.537 151.122C492.251 151.476 493.532 151.993 495.204 152.057C496.567 152.108 497.672 151.838 498.374 151.605C500.274 150.622 502.482 149.241 504.699 147.298C509.881 142.761 512.41 137.531 513.621 134.366V134.369Z"
      fill="#401F74" />
    <path
      d="M513.621 73.9608V134.369C510.87 141.826 505.394 147.966 498.402 151.585C498.52 151.187 498.636 150.257 498.636 148.185V73.9608C498.636 72.8967 499.504 72.0263 500.569 72.0263H511.688C512.756 72.0263 513.624 72.8939 513.624 73.9608H513.621Z"
      fill="url(#paint11_linear_11_2)" />
    <path
      d="M464.854 133.01C464.846 133.061 464.837 133.111 464.832 133.159C464.534 133.288 464.23 133.415 463.93 133.535C464.244 133.367 464.551 133.19 464.857 133.008L464.854 133.01Z"
      fill="#401F74" />
    <path d="M434.337 136.705C433.764 136.357 433.202 135.992 432.657 135.607L434.337 136.705Z" fill="#401F74" />
    <path d="M434.337 136.705C433.764 136.357 433.202 135.992 432.657 135.607L434.337 136.705Z" fill="#401F74" />
    <path
      d="M484.625 73.1465V130.41C484.625 142.34 481.638 151.479 475.743 157.582C469.836 163.697 460.984 166.8 449.433 166.8C442.419 166.8 434.953 165.506 430.412 163.507L430.142 163.386L429.487 162.681V149.244C429.487 148.242 430.305 147.425 431.308 147.425C431.57 147.425 431.822 147.478 432.061 147.587L435.29 149.053C439.173 150.768 445.195 151.538 449.433 151.538C461.53 151.538 467.318 147.309 468.897 137.073C468.906 137.02 468.914 136.969 468.923 136.913C468.6 137.107 468.271 137.295 467.936 137.474C463.303 139.998 457.781 141.318 451.771 141.318C444.681 141.318 438.541 139.706 433.556 136.702L431.876 135.605C433.818 135.972 435.821 136.166 437.869 136.166C450.309 136.166 461.091 129.068 466.377 118.706C467.425 116.987 468.206 114.985 468.704 112.717C469.133 110.76 469.353 108.604 469.353 106.265V84.7644C469.353 77.3551 475.386 71.3244 482.801 71.3244C483.804 71.3244 484.622 72.1414 484.622 73.1437L484.625 73.1465Z"
      fill="#401F74" />
    <path
      d="M466.377 118.706C461.091 129.068 450.309 136.166 437.87 136.166C435.821 136.166 433.818 135.972 431.876 135.605C423.747 129.877 419.138 120.09 419.138 107.38V84.7644C419.138 81.6283 420.22 78.7365 422.032 76.4511C424.497 73.3318 428.313 71.3244 432.59 71.3244C433.351 71.3244 434.006 71.7933 434.276 72.4587C434.363 72.6693 434.41 72.8995 434.41 73.1409V107.377C434.41 119.949 440.126 126.059 451.883 126.059C458.529 126.059 463.48 123.476 466.38 118.703L466.377 118.706Z"
      fill="url(#paint12_linear_11_2)" />
    <path
      d="M404.085 135.442C397.127 139.524 387.902 142.017 379.517 142.017C368.775 142.017 359.718 138.429 353.32 131.649C347.2 125.155 343.962 116.235 343.962 105.85C343.962 95.4642 347.216 86.2553 353.376 79.7192C359.558 73.155 368.111 69.6848 378.121 69.6848C384.187 69.6848 389.869 71.1307 394.745 73.8541C393.663 73.7446 392.567 73.6884 391.454 73.6884C373.678 73.6884 359.266 88.0886 359.266 105.852C359.266 108.253 359.53 110.592 360.033 112.84H359.971C360.159 113.672 360.387 114.469 360.657 115.227C364.672 128.417 376.943 138.011 391.454 138.011C395.936 138.011 400.207 137.095 404.085 135.439V135.442Z"
      fill="#401F74" />
    <path
      d="M405.695 134.445C405.173 134.788 404.639 135.122 404.085 135.442C400.207 137.098 395.939 138.013 391.454 138.013C376.943 138.013 364.672 128.417 360.657 115.23C361.747 118.313 363.503 120.808 365.911 122.678C369.303 125.309 373.878 126.645 379.517 126.645C386.455 126.645 392.601 124.837 397.782 121.272C398.153 121.016 398.575 120.893 398.991 120.893C399.735 120.893 400.463 121.28 400.856 121.99L406.33 131.834C406.831 132.732 406.552 133.881 405.692 134.445H405.695Z"
      fill="url(#paint13_linear_11_2)" />
    <path
      d="M402.056 79.5395C399.918 77.2681 397.456 75.3646 394.748 73.8541C393.666 73.7446 392.57 73.6884 391.457 73.6884C373.681 73.6884 359.269 88.0886 359.269 105.852C359.269 108.253 359.533 110.592 360.036 112.84H408.8C409.809 112.84 410.658 112.085 410.767 111.08L411.166 107.484C411.234 106.897 411.312 105.951 411.312 104.777C411.312 94.8325 408.025 85.8678 402.056 79.5395ZM360.409 97.6822C362.73 89.8322 369.528 84.843 378.121 84.843C386.126 84.843 392.396 89.7199 394.792 97.6822H360.409Z"
      fill="url(#paint14_linear_11_2)" />
    <path
      d="M546.819 15.3688C551.066 15.3688 554.51 11.9284 554.51 7.68442C554.51 3.44043 551.066 0 546.819 0C542.571 0 539.128 3.44043 539.128 7.68442C539.128 11.9284 542.571 15.3688 546.819 15.3688Z"
      fill="url(#paint15_linear_11_2)" />
    <path
      d="M575.77 32.8406C581.375 32.8406 585.919 28.3003 585.919 22.6995C585.919 17.0987 581.375 12.5584 575.77 12.5584C570.164 12.5584 565.62 17.0987 565.62 22.6995C565.62 28.3003 570.164 32.8406 575.77 32.8406Z"
      fill="url(#paint16_linear_11_2)" />
    <path
      d="M610.119 53.249C617.083 53.249 622.728 47.6088 622.728 40.6513C622.728 33.6938 617.083 28.0536 610.119 28.0536C603.156 28.0536 597.511 33.6938 597.511 40.6513C597.511 47.6088 603.156 53.249 610.119 53.249Z"
      fill="url(#paint17_linear_11_2)" />
    <path
      d="M639.956 70.1142L651.406 76.156C657.555 79.4009 665.173 77.0506 668.42 70.9066C671.668 64.7626 669.316 57.1514 663.166 53.9066L651.717 47.8648C645.568 44.6199 637.95 46.9701 634.702 53.1142C631.455 59.2582 633.807 66.8693 639.956 70.1142Z"
      fill="url(#paint18_linear_11_2)" />
    <path
      d="M686.499 94.4829L729.729 117.295C735.801 120.499 743.323 118.178 746.53 112.111C749.737 106.043 747.415 98.5274 741.342 95.3231L698.113 72.5115C692.04 69.3072 684.518 71.6281 681.311 77.6953C678.104 83.7625 680.427 91.2786 686.499 94.4829Z"
      fill="url(#paint19_linear_11_2)" />
    <path
      d="M701.175 137.088L741.04 117.54C747.205 114.518 749.75 107.074 746.724 100.914C743.699 94.7545 736.248 92.2116 730.084 95.2345L690.219 114.782C684.054 117.805 681.509 125.249 684.535 131.408C687.56 137.568 695.01 140.111 701.175 137.088Z"
      fill="url(#paint20_linear_11_2)" />
    <path
      d="M552.736 209.699L665.528 154.392C671.693 151.369 674.238 143.925 671.213 137.765C668.187 131.606 660.737 129.063 654.572 132.086L541.78 187.393C535.615 190.416 533.07 197.86 536.096 204.019C539.121 210.179 546.571 212.722 552.736 209.699Z"
      fill="url(#paint21_linear_11_2)" />
  </g>
  <defs>
    <linearGradient id="paint0_linear_11_2" x1="190.545" y1="203.316" x2="205.93" y2="203.316"
      gradientUnits="userSpaceOnUse">
      <stop stop-color="#545CCE" />
      <stop offset="0.08" stop-color="#5153C1" />
      <stop offset="0.34" stop-color="#493C9F" />
      <stop offset="0.59" stop-color="#442C87" />
      <stop offset="0.81" stop-color="#412279" />
      <stop offset="1" stop-color="#401F74" />
    </linearGradient>
    <linearGradient id="paint1_linear_11_2" x1="151.099" y1="188.3" x2="171.398" y2="188.3"
      gradientUnits="userSpaceOnUse">
      <stop stop-color="#9FA5FC" />
      <stop offset="0.09" stop-color="#8A90EF" />
      <stop offset="0.24" stop-color="#6C73DD" />
      <stop offset="0.37" stop-color="#5A62D1" />
      <stop offset="0.47" stop-color="#545CCE" />
      <stop offset="0.57" stop-color="#5155C4" />
      <stop offset="0.72" stop-color="#4C45AC" />
      <stop offset="0.93" stop-color="#432A84" />
      <stop offset="1" stop-color="#401F74" />
    </linearGradient>
    <linearGradient id="paint2_linear_11_2" x1="119.419" y1="170.349" x2="144.633" y2="170.349"
      gradientUnits="userSpaceOnUse">
      <stop stop-color="#9FA5FC" />
      <stop offset="0.09" stop-color="#8A90EF" />
      <stop offset="0.24" stop-color="#6C73DD" />
      <stop offset="0.37" stop-color="#5A62D1" />
      <stop offset="0.47" stop-color="#545CCE" />
      <stop offset="0.57" stop-color="#5155C4" />
      <stop offset="0.72" stop-color="#4C45AC" />
      <stop offset="0.93" stop-color="#432A84" />
      <stop offset="1" stop-color="#401F74" />
    </linearGradient>
    <linearGradient id="paint3_linear_11_2" x1="78.1581" y1="148.943" x2="114.775" y2="148.943"
      gradientUnits="userSpaceOnUse">
      <stop stop-color="#9FA5FC" />
      <stop offset="0.09" stop-color="#8A90EF" />
      <stop offset="0.24" stop-color="#6C73DD" />
      <stop offset="0.37" stop-color="#5A62D1" />
      <stop offset="0.47" stop-color="#545CCE" />
      <stop offset="0.57" stop-color="#5155C4" />
      <stop offset="0.72" stop-color="#4C45AC" />
      <stop offset="0.93" stop-color="#432A84" />
      <stop offset="1" stop-color="#401F74" />
    </linearGradient>
    <linearGradient id="paint4_linear_11_2" x1="0.0694299" y1="116.044" x2="68.1527" y2="116.044"
      gradientUnits="userSpaceOnUse">
      <stop offset="0.28" stop-color="#401F74" />
      <stop offset="0.36" stop-color="#432A84" />
      <stop offset="0.58" stop-color="#4C45AC" />
      <stop offset="0.75" stop-color="#5155C4" />
      <stop offset="0.86" stop-color="#545CCE" />
      <stop offset="0.88" stop-color="#5A62D1" />
      <stop offset="0.93" stop-color="#6C73DD" />
      <stop offset="0.97" stop-color="#8A90EF" />
      <stop offset="1" stop-color="#9FA5FC" />
    </linearGradient>
    <linearGradient id="paint5_linear_11_2" x1="0.00139789" y1="94.804" x2="64.7183" y2="94.804"
      gradientUnits="userSpaceOnUse">
      <stop stop-color="#9FA5FC" />
      <stop offset="0.11" stop-color="#8A90EF" />
      <stop offset="0.29" stop-color="#6C73DD" />
      <stop offset="0.45" stop-color="#5A62D1" />
      <stop offset="0.56" stop-color="#545CCE" />
    </linearGradient>
    <linearGradient id="paint6_linear_11_2" x1="60.7805" y1="82.2675" x2="183.585" y2="20.1523"
      gradientUnits="userSpaceOnUse">
      <stop stop-color="#9FA5FC" />
      <stop offset="0.06" stop-color="#8990EE" />
      <stop offset="0.15" stop-color="#7279E0" />
      <stop offset="0.24" stop-color="#6168D6" />
      <stop offset="0.34" stop-color="#575FCF" />
      <stop offset="0.47" stop-color="#545CCE" />
      <stop offset="0.76" stop-color="#48399B" />
      <stop offset="1" stop-color="#401F74" />
    </linearGradient>
    <linearGradient id="paint7_linear_11_2" x1="526.137" y1="109.407" x2="573.872" y2="102.854"
      gradientUnits="userSpaceOnUse">
      <stop offset="0.09" stop-color="#401F74" />
      <stop offset="0.53" stop-color="#545CCE" />
      <stop offset="0.63" stop-color="#5A62D1" />
      <stop offset="0.76" stop-color="#6C73DD" />
      <stop offset="0.91" stop-color="#8A90EF" />
      <stop offset="1" stop-color="#9FA5FC" />
    </linearGradient>
    <linearGradient id="paint8_linear_11_2" x1="186.906" y1="70.2323" x2="151.098" y2="121.909"
      gradientUnits="userSpaceOnUse">
      <stop stop-color="#401F74" />
      <stop offset="0.12" stop-color="#442D89" />
      <stop offset="0.53" stop-color="#545CCE" />
      <stop offset="0.63" stop-color="#5A62D1" />
      <stop offset="0.76" stop-color="#6C73DD" />
      <stop offset="0.91" stop-color="#8A90EF" />
      <stop offset="1" stop-color="#9FA5FC" />
    </linearGradient>
    <linearGradient id="paint9_linear_11_2" x1="284.652" y1="102.542" x2="223.391" y2="101.994"
      gradientUnits="userSpaceOnUse">
      <stop stop-color="#401F74" />
      <stop offset="0.07" stop-color="#432A84" />
      <stop offset="0.28" stop-color="#4C45AC" />
      <stop offset="0.43" stop-color="#5155C4" />
      <stop offset="0.53" stop-color="#545CCE" />
      <stop offset="0.63" stop-color="#5A62D1" />
      <stop offset="0.76" stop-color="#6C73DD" />
      <stop offset="0.91" stop-color="#8A90EF" />
      <stop offset="1" stop-color="#9FA5FC" />
    </linearGradient>
    <linearGradient id="paint10_linear_11_2" x1="343.971" y1="76.5213" x2="317.62" y2="88.1079"
      gradientUnits="userSpaceOnUse">
      <stop stop-color="#401F74" />
      <stop offset="0.07" stop-color="#432A84" />
      <stop offset="0.28" stop-color="#4C45AC" />
      <stop offset="0.43" stop-color="#5155C4" />
      <stop offset="0.53" stop-color="#545CCE" />
      <stop offset="0.63" stop-color="#5A62D1" />
      <stop offset="0.76" stop-color="#6C73DD" />
      <stop offset="0.91" stop-color="#8A90EF" />
      <stop offset="1" stop-color="#9FA5FC" />
    </linearGradient>
    <linearGradient id="paint11_linear_11_2" x1="487.601" y1="95.6888" x2="531.383" y2="135.366"
      gradientUnits="userSpaceOnUse">
      <stop stop-color="#401F74" />
      <stop offset="0.07" stop-color="#432A84" />
      <stop offset="0.28" stop-color="#4C45AC" />
      <stop offset="0.43" stop-color="#5155C4" />
      <stop offset="0.53" stop-color="#545CCE" />
      <stop offset="0.63" stop-color="#5A62D1" />
      <stop offset="0.76" stop-color="#6C73DD" />
      <stop offset="0.91" stop-color="#8A90EF" />
      <stop offset="1" stop-color="#9FA5FC" />
    </linearGradient>
    <linearGradient id="paint12_linear_11_2" x1="419.436" y1="101.335" x2="457.484" y2="107.66"
      gradientUnits="userSpaceOnUse">
      <stop stop-color="#401F74" />
      <stop offset="0.07" stop-color="#432A84" />
      <stop offset="0.28" stop-color="#4C45AC" />
      <stop offset="0.43" stop-color="#5155C4" />
      <stop offset="0.53" stop-color="#545CCE" />
      <stop offset="0.63" stop-color="#5A62D1" />
      <stop offset="0.76" stop-color="#6C73DD" />
      <stop offset="0.91" stop-color="#8A90EF" />
      <stop offset="1" stop-color="#9FA5FC" />
    </linearGradient>
    <linearGradient id="paint13_linear_11_2" x1="409.388" y1="129.49" x2="363.627" y2="125.625"
      gradientUnits="userSpaceOnUse">
      <stop stop-color="#401F74" />
      <stop offset="0.09" stop-color="#41237B" />
      <stop offset="0.24" stop-color="#46318F" />
      <stop offset="0.4" stop-color="#4D47B0" />
      <stop offset="0.53" stop-color="#545CCE" />
      <stop offset="0.63" stop-color="#5A62D1" />
      <stop offset="0.76" stop-color="#6C73DD" />
      <stop offset="0.91" stop-color="#8A90EF" />
      <stop offset="1" stop-color="#9FA5FC" />
    </linearGradient>
    <linearGradient id="paint14_linear_11_2" x1="413.605" y1="92.3197" x2="361.68" y2="95.8323"
      gradientUnits="userSpaceOnUse">
      <stop stop-color="#401F74" />
      <stop offset="0.07" stop-color="#432A84" />
      <stop offset="0.28" stop-color="#4C45AC" />
      <stop offset="0.43" stop-color="#5155C4" />
      <stop offset="0.53" stop-color="#545CCE" />
      <stop offset="0.63" stop-color="#5A62D1" />
      <stop offset="0.76" stop-color="#6C73DD" />
      <stop offset="0.91" stop-color="#8A90EF" />
      <stop offset="1" stop-color="#9FA5FC" />
    </linearGradient>
    <linearGradient id="paint15_linear_11_2" x1="557.455" y1="7.68442" x2="542.07" y2="7.68442"
      gradientUnits="userSpaceOnUse">
      <stop stop-color="#545CCE" />
      <stop offset="0.08" stop-color="#5153C1" />
      <stop offset="0.34" stop-color="#493C9F" />
      <stop offset="0.59" stop-color="#442C87" />
      <stop offset="0.81" stop-color="#412279" />
      <stop offset="1" stop-color="#401F74" />
    </linearGradient>
    <linearGradient id="paint16_linear_11_2" x1="596.901" y1="22.6995" x2="576.602" y2="22.6995"
      gradientUnits="userSpaceOnUse">
      <stop stop-color="#9FA5FC" />
      <stop offset="0.09" stop-color="#8A90EF" />
      <stop offset="0.24" stop-color="#6C73DD" />
      <stop offset="0.37" stop-color="#5A62D1" />
      <stop offset="0.47" stop-color="#545CCE" />
      <stop offset="0.57" stop-color="#5155C4" />
      <stop offset="0.72" stop-color="#4C45AC" />
      <stop offset="0.93" stop-color="#432A84" />
      <stop offset="1" stop-color="#401F74" />
    </linearGradient>
    <linearGradient id="paint17_linear_11_2" x1="628.581" y1="40.6513" x2="603.367" y2="40.6513"
      gradientUnits="userSpaceOnUse">
      <stop stop-color="#9FA5FC" />
      <stop offset="0.09" stop-color="#8A90EF" />
      <stop offset="0.24" stop-color="#6C73DD" />
      <stop offset="0.37" stop-color="#5A62D1" />
      <stop offset="0.47" stop-color="#545CCE" />
      <stop offset="0.57" stop-color="#5155C4" />
      <stop offset="0.72" stop-color="#4C45AC" />
      <stop offset="0.93" stop-color="#432A84" />
      <stop offset="1" stop-color="#401F74" />
    </linearGradient>
    <linearGradient id="paint18_linear_11_2" x1="669.783" y1="61.9698" x2="633.166" y2="61.9698"
      gradientUnits="userSpaceOnUse">
      <stop stop-color="#9FA5FC" />
      <stop offset="0.09" stop-color="#8A90EF" />
      <stop offset="0.24" stop-color="#6C73DD" />
      <stop offset="0.37" stop-color="#5A62D1" />
      <stop offset="0.47" stop-color="#545CCE" />
      <stop offset="0.57" stop-color="#5155C4" />
      <stop offset="0.72" stop-color="#4C45AC" />
      <stop offset="0.93" stop-color="#432A84" />
      <stop offset="1" stop-color="#401F74" />
    </linearGradient>
    <linearGradient id="paint19_linear_11_2" x1="747.882" y1="94.8609" x2="679.799" y2="94.8609"
      gradientUnits="userSpaceOnUse">
      <stop offset="0.28" stop-color="#401F74" />
      <stop offset="0.36" stop-color="#432A84" />
      <stop offset="0.58" stop-color="#4C45AC" />
      <stop offset="0.75" stop-color="#5155C4" />
      <stop offset="0.86" stop-color="#545CCE" />
      <stop offset="0.88" stop-color="#5A62D1" />
      <stop offset="0.93" stop-color="#6C73DD" />
      <stop offset="0.97" stop-color="#8A90EF" />
      <stop offset="1" stop-color="#9FA5FC" />
    </linearGradient>
    <linearGradient id="paint20_linear_11_2" x1="747.935" y1="116.132" x2="683.218" y2="116.132"
      gradientUnits="userSpaceOnUse">
      <stop stop-color="#9FA5FC" />
      <stop offset="0.11" stop-color="#8A90EF" />
      <stop offset="0.29" stop-color="#6C73DD" />
      <stop offset="0.45" stop-color="#5A62D1" />
      <stop offset="0.56" stop-color="#545CCE" />
    </linearGradient>
    <linearGradient id="paint21_linear_11_2" x1="687.166" y1="128.673" x2="564.361" y2="190.788"
      gradientUnits="userSpaceOnUse">
      <stop stop-color="#9FA5FC" />
      <stop offset="0.06" stop-color="#8990EE" />
      <stop offset="0.15" stop-color="#7279E0" />
      <stop offset="0.24" stop-color="#6168D6" />
      <stop offset="0.34" stop-color="#575FCF" />
      <stop offset="0.47" stop-color="#545CCE" />
      <stop offset="0.76" stop-color="#48399B" />
      <stop offset="1" stop-color="#401F74" />
    </linearGradient>
    <clipPath id="clip0_11_2">
      <rect width="748" height="211" fill="white" />
    </clipPath>
  </defs>
</svg>
