<svg viewBox="0 0 689 196" fill="none" xmlns="http://www.w3.org/2000/svg">
  <g clip-path="url(#clip0_11_89)">
    <path
      d="M185.257 194.509C189.169 194.509 192.34 191.338 192.34 187.425C192.34 183.513 189.169 180.341 185.257 180.341C181.345 180.341 178.174 183.513 178.174 187.425C178.174 191.338 181.345 194.509 185.257 194.509Z"
      fill="url(#paint0_linear_11_89)" />
    <path
      d="M503.743 15.6586C507.654 15.6586 510.825 12.487 510.825 8.57454C510.825 4.66212 507.654 1.49048 503.743 1.49048C499.831 1.49048 496.66 4.66212 496.66 8.57454C496.66 12.487 499.831 15.6586 503.743 15.6586Z"
      fill="url(#paint1_linear_11_89)" />
    <path
      d="M158.596 182.934C163.758 182.934 167.942 178.749 167.942 173.586C167.942 168.424 163.758 164.238 158.596 164.238C153.434 164.238 149.25 168.424 149.25 173.586C149.25 178.749 153.434 182.934 158.596 182.934Z"
      fill="url(#paint2_linear_11_89)" />
    <path
      d="M126.96 168.648C133.372 168.648 138.57 163.449 138.57 157.036C138.57 150.623 133.372 145.424 126.96 145.424C120.549 145.424 115.351 150.623 115.351 157.036C115.351 163.449 120.549 168.648 126.96 168.648Z"
      fill="url(#paint3_linear_11_89)" />
    <path
      d="M99.4969 129.838L88.9524 124.268C83.2894 121.277 76.2742 123.444 73.2834 129.108C70.2927 134.772 72.4589 141.788 78.1218 144.779L88.6664 150.349C94.3293 153.34 101.345 151.174 104.335 145.51C107.326 139.846 105.16 132.83 99.4969 129.838Z"
      fill="url(#paint4_linear_11_89)" />
    <path
      d="M56.6463 107.368L16.8326 86.3375C11.2411 83.3839 4.31432 85.5231 1.36125 91.1156L1.35993 91.1181C-1.59314 96.7106 0.545756 103.638 6.13729 106.592L45.951 127.622C51.5425 130.576 58.4693 128.437 61.4224 122.844L61.4237 122.842C64.3767 117.249 62.2379 110.321 56.6463 107.368Z"
      fill="url(#paint5_linear_11_89)" />
    <path
      d="M43.1064 68.161L6.3945 86.1808C0.717821 88.9672 -1.62562 95.8286 1.16027 101.506L1.1615 101.509C3.9474 107.186 10.8077 109.53 16.4843 106.744L53.1963 88.724C58.8729 85.9377 61.2164 79.0763 58.4305 73.3987L58.4293 73.3961C55.6434 67.7185 48.7831 65.3747 43.1064 68.161Z"
      fill="url(#paint6_linear_11_89)" />
    <path
      d="M179.807 1.17098L75.9311 52.1576C70.2544 54.944 67.911 61.8054 70.6969 67.483L70.6981 67.4855C73.484 73.1631 80.3443 75.507 86.021 72.7206L189.897 21.734C195.573 18.9476 197.917 12.0862 195.131 6.40861L195.13 6.40608C192.344 0.728465 185.484 -1.61538 179.807 1.17098Z"
      fill="url(#paint7_linear_11_89)" />
    <path
      d="M530.404 31.7644C535.566 31.7644 539.75 27.5792 539.75 22.4165C539.75 17.2538 535.566 13.0685 530.404 13.0685C525.242 13.0685 521.058 17.2538 521.058 22.4165C521.058 27.5792 525.242 31.7644 530.404 31.7644Z"
      fill="url(#paint8_linear_11_89)" />
    <path
      d="M562.04 50.5755C568.452 50.5755 573.649 45.3767 573.649 38.9637C573.649 32.5507 568.452 27.3519 562.04 27.3519C555.628 27.3519 550.43 32.5507 550.43 38.9637C550.43 45.3767 555.628 50.5755 562.04 50.5755Z"
      fill="url(#paint9_linear_11_89)" />
    <path
      d="M589.515 66.1251L600.059 71.6949C605.722 74.6862 612.737 72.5196 615.728 66.8557C618.719 61.1919 616.553 54.1755 610.89 51.1842L600.345 45.6144C594.682 42.6231 587.667 44.7896 584.676 50.4535C581.686 56.1174 583.852 63.1338 589.515 66.1251Z"
      fill="url(#paint10_linear_11_89)" />
    <path
      d="M632.374 88.5902L672.188 109.621C677.78 112.574 684.706 110.435 687.66 104.843L687.661 104.84C690.614 99.2476 688.475 92.3197 682.883 89.3661L643.07 68.3357C637.478 65.3821 630.551 67.5214 627.598 73.1138L627.597 73.1163C624.644 78.7088 626.783 85.6367 632.374 88.5902Z"
      fill="url(#paint11_linear_11_89)" />
    <path
      d="M645.879 127.81L682.591 109.79C688.267 107.003 690.611 100.142 687.825 94.4644L687.824 94.4619C685.038 88.7842 678.177 86.4404 672.501 89.2268L635.789 107.247C630.112 110.033 627.769 116.894 630.555 122.572L630.556 122.574C633.342 128.252 640.202 130.596 645.879 127.81Z"
      fill="url(#paint12_linear_11_89)" />
    <path
      d="M509.188 194.804L613.063 143.817C618.74 141.031 621.083 134.169 618.297 128.492L618.296 128.489C615.51 122.812 608.65 120.468 602.973 123.254L499.098 174.241C493.421 177.027 491.078 183.889 493.863 189.566L493.865 189.569C496.651 195.246 503.511 197.59 509.188 194.804Z"
      fill="url(#paint13_linear_11_89)" />
    <path
      d="M551.11 128.691C551.065 129.873 550.927 130.483 550.601 131.13C549.406 133.543 545.548 134.341 542.939 134.063C537.633 133.492 534.925 128.188 534.67 127.662C529.175 131.917 522.205 134.338 515.355 134.338C514.793 134.338 514.234 134.322 513.685 134.293C513.649 134.293 513.609 134.288 513.573 134.288C512.549 134.22 511.534 134.108 510.528 133.936C516.008 131.265 520.765 127.325 524.392 122.49C527.488 118.385 529.774 113.64 531.014 108.483C531.02 108.466 531.028 108.443 531.031 108.424C531.728 106.196 532.086 103.724 532.086 101.106V90.4223C531.591 89.7474 531.065 89.1118 530.5 88.5128C526.844 84.6235 521.817 82.4355 516.345 82.4355C510.873 82.4355 507.016 84.0385 504.232 87.2023C503.847 87.6438 503.487 88.1107 503.149 88.6084C502.238 89.9555 501.516 91.5163 500.984 93.2571V93.184C500.984 82.4215 506.645 72.9807 515.156 67.6768H515.215C515.434 67.6684 515.656 67.6684 515.876 67.6684C516.716 67.6684 517.56 67.6993 518.409 67.7668C523.192 68.1184 528.011 69.457 532.558 71.7012C532.665 70.8828 533.008 70.0026 533.958 69.3754C534.813 68.8186 535.732 68.8186 536.177 68.8186L543.08 68.8467C543.712 68.8524 545.194 68.8552 546.192 70.0419C546.968 70.9728 546.968 72.1005 546.966 72.6433L546.89 115.066C546.935 115.69 546.929 116.194 546.918 116.54C546.918 116.54 546.89 117.442 547.03 118.598C547.036 118.638 547.039 118.671 547.044 118.705C547.061 118.832 547.098 119.09 547.278 119.18C547.404 119.242 547.511 119.175 547.775 119.158C547.775 119.158 547.958 119.141 548.34 119.197C549.575 119.394 550.559 120.353 550.91 121.703C551.062 122.305 551.074 122.87 551.076 123.326C551.082 123.466 551.082 123.568 551.09 123.663C551.164 125.331 551.166 127.018 551.107 128.691H551.11Z"
      fill="#705FDA" />
    <path
      d="M531.014 108.485C529.774 113.643 527.488 118.387 524.392 122.493C520.762 127.328 516.007 131.268 510.527 133.939C509.571 133.782 508.627 133.576 507.693 133.323C501.451 131.653 495.768 127.977 491.846 122.932C486.562 116.14 484.186 106.503 485.325 96.4856C486.146 89.1766 488.657 82.8321 492.574 78.1244C497.168 72.6039 504.046 68.9452 511.615 67.9497C512.124 67.8878 512.636 67.8287 513.151 67.7866C513.814 67.7247 514.483 67.6881 515.158 67.6797C506.647 72.9864 500.987 82.4243 500.987 93.1868V93.2599C500.959 93.3443 500.936 93.4315 500.914 93.5159C500.253 95.7657 499.916 98.3192 499.916 101.109C499.916 106.961 501.479 111.801 504.429 115.089C507.181 118.157 511.129 119.782 515.856 119.782C516.238 119.782 516.62 119.774 516.989 119.751C520.644 119.54 523.813 118.3 526.282 116.112C526.763 115.693 527.215 115.232 527.643 114.737C529.122 113.016 530.26 110.893 531.011 108.483L531.014 108.485Z"
      fill="url(#paint14_linear_11_89)" />
    <path
      d="M172.236 129.127C173.735 129.352 175.267 129.471 176.83 129.471C176.881 129.471 176.932 129.471 176.982 129.471C175.348 129.459 173.765 129.344 172.236 129.13V129.127Z"
      fill="#401F74" />
    <path
      d="M156.951 133.804C151.066 132.966 145.833 130.955 141.472 127.856C146.053 130.868 151.302 132.944 156.951 133.804Z"
      fill="#401F74" />
    <path
      d="M190.968 124.566L188.094 126.633C181.458 131.405 171.572 134.254 161.652 134.254C161.529 134.254 161.405 134.254 161.284 134.254C159.206 134.24 157.19 134.094 155.247 133.821C155.213 133.818 155.18 133.813 155.146 133.807C149.497 132.946 144.247 130.871 139.667 127.859C139.661 127.856 139.656 127.851 139.65 127.848C138.463 127.004 137.344 126.079 136.293 125.075C130.025 119.09 126.71 110.735 126.71 100.912C126.71 89.919 131.029 80.9142 138.452 75.045C134.957 79.8118 132.896 85.6894 132.896 92.0507C132.896 107.954 145.785 120.843 161.683 120.843C164.439 120.843 167.104 120.457 169.626 119.732C172.79 119.017 176.063 117.76 178.956 115.623C180.033 114.827 181.307 114.408 182.642 114.408C184.681 114.408 186.593 115.409 187.751 117.085L190.439 120.975L191.364 122.311C191.868 123.042 191.693 124.057 190.974 124.572L190.968 124.566Z"
      fill="#705FDA" />
    <path
      d="M190.484 79.1255L188.527 81.6397L186.222 84.6038C185.035 86.1336 183.238 87.0111 181.301 87.0111C180.033 87.0111 178.81 86.6286 177.764 85.9059C173.518 82.9755 167.619 81.2263 161.987 81.2263C150.073 81.2263 142.071 89.1343 142.071 100.906C142.071 112.679 149.531 120.587 161.54 120.587C163.879 120.587 166.702 120.387 169.621 119.726C167.099 120.452 164.433 120.837 161.678 120.837C145.78 120.837 132.891 107.945 132.891 92.045C132.891 85.6837 134.954 79.8033 138.447 75.0393C144.492 70.2585 152.593 67.5587 162.097 67.5587C167.355 67.5587 174.862 68.4446 182.617 72.2946C183.972 72.9639 185.336 73.7288 186.694 74.595L190.063 76.7379C190.451 76.9854 190.718 77.3847 190.797 77.8403C190.875 78.2931 190.76 78.7599 190.476 79.1255H190.484Z"
      fill="url(#paint15_linear_11_89)" />
    <path
      d="M262.469 118.477C256.775 128.284 245.91 134.054 231.708 134.054C210.327 134.054 196.51 120.98 196.51 100.743C196.51 80.5064 210.327 67.4322 231.708 67.4322C233.44 67.4322 235.121 67.5166 236.749 67.6853C221.945 69.6117 210.516 82.2753 210.516 97.6077C210.516 99.5059 210.69 101.362 211.024 103.159C211.061 103.553 211.103 103.941 211.159 104.318C211.123 104.045 211.092 103.767 211.069 103.485C211.663 106.683 212.785 109.692 214.345 112.417C214.407 112.507 214.48 112.6 214.548 112.687C219.761 121.711 229.512 127.783 240.683 127.783C249.251 127.783 256.98 124.214 262.472 118.48L262.469 118.477Z"
      fill="#705FDA" />
    <path
      d="M266.903 100.743C266.903 107.538 265.348 113.522 262.469 118.477C256.978 124.212 249.248 127.78 240.683 127.78C229.515 127.78 219.761 121.709 214.548 112.687C217.984 117.032 223.799 119.332 231.708 119.332C245.117 119.332 252.501 112.732 252.501 100.743C252.501 88.7547 245.117 82.1544 231.708 82.1544C218.299 82.1544 210.918 88.7547 210.918 100.743C210.918 101.576 210.954 102.38 211.025 103.159C210.69 101.359 210.516 99.5031 210.516 97.6049C210.516 82.2725 221.948 69.6117 236.75 67.6825C255.237 69.592 266.906 82.1431 266.906 100.741L266.903 100.743Z"
      fill="url(#paint16_linear_11_89)" />
    <path
      d="M317.605 71.9515C305.849 72.1202 295.8 79.3477 291.506 89.5871C289.878 92.6975 289.012 96.6768 289.012 101.39V131.982C289.012 132.885 288.278 133.619 287.376 133.619H276.924C276.022 133.619 275.288 132.885 275.288 131.982V70.5988C275.288 69.6961 276.022 68.9621 276.924 68.9621H286.839C287.719 68.9621 288.439 69.6511 288.472 70.5341L288.529 72.064L288.534 72.2299C292.853 69.263 298.249 67.7612 304.609 67.7612C306.968 67.7612 308.34 68.0171 309.535 68.2787C310.663 68.4474 311.768 68.7315 312.828 69.128C314.487 69.7495 316.028 70.6382 317.414 71.7687C317.482 71.8249 317.546 71.8868 317.602 71.9515H317.605Z"
      fill="#705FDA" />
    <path
      d="M317.704 74.0072L311.861 81.9265C311.554 82.3428 311.062 82.5902 310.545 82.5902H310.438L310.275 82.5677L307.525 82.1122C307.238 82.0643 305.9 81.8844 304.612 81.8844C298.615 81.8844 294.096 84.6347 291.506 89.5871C295.8 79.3477 305.846 72.1202 317.605 71.9515C318.111 72.5196 318.165 73.3773 317.701 74.01L317.704 74.0072Z"
      fill="url(#paint17_linear_11_89)" />
    <path
      d="M470.96 63.7285C471.419 64.1363 471.995 64.4259 472.644 64.5272C474.447 64.8084 476.151 63.5654 476.432 61.7655L478.265 50.0666C478.448 48.8995 477.992 47.7746 477.157 47.049C476.17 46.1856 474.717 45.9494 473.48 46.5709L462.553 52.0604C460.925 52.8788 460.261 54.8811 461.08 56.5122C461.33 57.0072 461.69 57.415 462.114 57.7159C462.114 57.7159 462.12 57.7187 462.12 57.7215C462.148 57.7412 462.179 57.7609 462.21 57.7834C462.244 57.8059 464.937 58.433 467.063 59.8785C469.208 61.3381 470.792 63.6132 470.96 63.7285Z"
      fill="#705FDA" />
    <path
      d="M475.161 127.302V140.039C475.161 150.278 470.032 156.766 461.712 157.177C461.704 157.177 461.692 157.177 461.681 157.177C461.349 157.185 461.017 157.194 460.683 157.194C460.68 157.194 460.677 157.194 460.674 157.194C459.957 157.185 458.239 157.112 456.721 156.679L454.084 155.925C453.324 155.709 452.793 155.003 452.793 154.213V145.995V144.513C452.793 143.529 453.592 142.73 454.57 142.73C454.654 142.73 454.739 142.736 454.823 142.747C455.481 143.073 456.659 143.551 458.2 143.608C459.457 143.656 460.472 143.405 461.119 143.191C462.87 142.286 464.903 141.012 466.945 139.221C471.716 135.039 474.047 130.219 475.161 127.299V127.302Z"
      fill="#705FDA" />
    <path
      d="M475.161 71.614V127.302C472.627 134.178 467.586 139.836 461.144 143.172C461.254 142.803 461.358 141.948 461.358 140.039V71.614C461.358 70.6325 462.156 69.8311 463.138 69.8311H473.378C474.362 69.8311 475.161 70.6325 475.161 71.614Z"
      fill="url(#paint18_linear_11_89)" />
    <path
      d="M430.254 126.048C430.245 126.096 430.24 126.141 430.231 126.186C429.956 126.307 429.677 126.422 429.399 126.534C429.689 126.38 429.973 126.217 430.251 126.048H430.254Z"
      fill="#401F74" />
    <path d="M402.147 129.454C401.618 129.133 401.104 128.796 400.601 128.441L402.147 129.454Z" fill="#401F74" />
    <path d="M402.147 129.454C401.618 129.133 401.104 128.796 400.601 128.441L402.147 129.454Z" fill="#401F74" />
    <path
      d="M448.457 70.8631V123.652C448.457 134.648 445.705 143.073 440.278 148.701C434.84 154.339 426.686 157.196 416.049 157.196C409.587 157.196 402.712 156.004 398.531 154.162L398.284 154.052L397.682 153.403V141.015C397.682 140.09 398.433 139.339 399.358 139.339C399.597 139.339 399.83 139.389 400.052 139.491L403.025 140.84C406.601 142.421 412.146 143.132 416.049 143.132C427.189 143.132 432.52 139.235 433.974 129.8C433.982 129.752 433.991 129.704 433.996 129.653C433.698 129.83 433.395 130.005 433.088 130.171C428.823 132.499 423.736 133.714 418.2 133.714C411.671 133.714 406.016 132.226 401.425 129.459L399.878 128.447C401.666 128.787 403.511 128.964 405.398 128.964C416.853 128.964 426.784 122.423 431.651 112.867C432.616 111.284 433.336 109.439 433.794 107.346C434.19 105.541 434.393 103.556 434.393 101.399V81.5778C434.393 74.7468 439.949 69.187 446.779 69.187C447.704 69.187 448.455 69.9379 448.455 70.8631H448.457Z"
      fill="#705FDA" />
    <path
      d="M431.654 112.861C426.787 122.415 416.855 128.959 405.4 128.959C403.514 128.959 401.669 128.781 399.881 128.441C392.396 123.163 388.15 114.138 388.15 102.422V81.575C388.15 78.684 389.145 76.018 390.816 73.9116C393.085 71.0347 396.599 69.187 400.539 69.187C401.239 69.187 401.843 69.6201 402.091 70.2332C402.169 70.4272 402.214 70.6409 402.214 70.8631V102.422C402.214 114.012 407.478 119.644 418.304 119.644C424.425 119.644 428.983 117.262 431.654 112.864V112.861Z"
      fill="url(#paint19_linear_11_89)" />
    <path
      d="M374.288 128.292C367.88 132.055 359.386 134.355 351.664 134.355C341.773 134.355 333.43 131.048 327.539 124.797C321.902 118.812 318.921 110.586 318.921 101.013C318.921 91.4404 321.919 82.9502 327.59 76.9264C333.284 70.8744 341.162 67.6741 350.379 67.6741C355.966 67.6741 361.199 69.0071 365.687 71.5184C364.691 71.4172 363.679 71.3666 362.658 71.3666C346.288 71.3666 333.017 84.6404 333.017 101.016C333.017 103.229 333.258 105.386 333.722 107.459H333.666C333.84 108.224 334.049 108.961 334.296 109.658C337.994 121.816 349.294 130.663 362.658 130.663C366.786 130.663 370.717 129.819 374.291 128.292H374.288Z"
      fill="#705FDA" />
    <path
      d="M375.77 127.37C375.289 127.688 374.797 127.994 374.288 128.289C370.717 129.816 366.786 130.66 362.656 130.66C349.294 130.66 337.994 121.813 334.293 109.655C335.297 112.496 336.917 114.796 339.132 116.523C342.253 118.95 346.468 120.182 351.662 120.182C358.05 120.182 363.71 118.517 368.482 115.229C368.822 114.993 369.213 114.881 369.595 114.881C370.281 114.881 370.95 115.238 371.316 115.89L376.358 124.965C376.819 125.795 376.56 126.852 375.77 127.373V127.37Z"
      fill="url(#paint20_linear_11_89)" />
    <path
      d="M372.421 76.7548C370.453 74.6625 368.184 72.9048 365.69 71.5156C364.694 71.4143 363.682 71.3637 362.661 71.3637C346.291 71.3637 333.02 84.6375 333.02 101.013C333.02 103.227 333.261 105.384 333.725 107.456H378.635C379.566 107.456 380.345 106.759 380.446 105.833L380.814 102.518C380.876 101.975 380.949 101.106 380.949 100.023C380.949 90.8554 377.924 82.5902 372.427 76.7576L372.421 76.7548ZM334.068 93.4821C336.205 86.2462 342.467 81.6453 350.379 81.6453C357.752 81.6453 363.527 86.1421 365.732 93.4821H334.068Z"
      fill="url(#paint21_linear_11_89)" />
  </g>
  <defs>
    <linearGradient id="paint0_linear_11_89" x1="188.063" y1="188.525" x2="174.87" y2="183.358"
      gradientUnits="userSpaceOnUse">
      <stop stop-color="#545CCE" />
      <stop offset="0.48" stop-color="#675ED6" />
      <stop offset="0.81" stop-color="#705FDA" />
    </linearGradient>
    <linearGradient id="paint1_linear_11_89" x1="496.66" y1="8.57454" x2="510.828" y2="8.57454"
      gradientUnits="userSpaceOnUse">
      <stop stop-color="#545CCE" />
      <stop offset="0.48" stop-color="#675ED6" />
      <stop offset="0.81" stop-color="#705FDA" />
    </linearGradient>
    <linearGradient id="paint2_linear_11_89" x1="162.22" y1="176.46" x2="147.572" y2="164.845"
      gradientUnits="userSpaceOnUse">
      <stop offset="0.02" stop-color="#545CCE" />
      <stop offset="0.34" stop-color="#685ED6" />
      <stop offset="0.44" stop-color="#705FDA" />
      <stop offset="0.99" stop-color="#A1A8FF" />
    </linearGradient>
    <linearGradient id="paint3_linear_11_89" x1="139.268" y1="163.187" x2="118.49" y2="152.807"
      gradientUnits="userSpaceOnUse">
      <stop stop-color="#545CCE" />
      <stop offset="0.22" stop-color="#5E5DD2" />
      <stop offset="0.46" stop-color="#705FDA" />
      <stop offset="0.57" stop-color="#7364DC" />
      <stop offset="0.71" stop-color="#7D72E3" />
      <stop offset="0.86" stop-color="#8D8AF0" />
      <stop offset="1" stop-color="#A1A8FF" />
    </linearGradient>
    <linearGradient id="paint4_linear_11_89" x1="107.786" y1="146.296" x2="77.3161" y2="131.851"
      gradientUnits="userSpaceOnUse">
      <stop stop-color="#545CCE" />
      <stop offset="0.32" stop-color="#705FDA" />
      <stop offset="0.46" stop-color="#7466DD" />
      <stop offset="0.66" stop-color="#8179E7" />
      <stop offset="0.91" stop-color="#9799F7" />
      <stop offset="1" stop-color="#A1A8FF" />
    </linearGradient>
    <linearGradient id="paint5_linear_11_89" x1="10.8639" y1="92.0703" x2="61.614" y2="128.894"
      gradientUnits="userSpaceOnUse">
      <stop stop-color="#705FDA" />
      <stop offset="0.23" stop-color="#545CCE" />
      <stop offset="0.95" stop-color="#A1A8FF" />
    </linearGradient>
    <linearGradient id="paint6_linear_11_89" x1="-2.54136" y1="102.8" x2="51.3048" y2="77.2551"
      gradientUnits="userSpaceOnUse">
      <stop stop-color="#545CCE" />
      <stop offset="0.32" stop-color="#705FDA" />
      <stop offset="0.95" stop-color="#A1A8FF" />
    </linearGradient>
    <linearGradient id="paint7_linear_11_89" x1="194.903" y1="6.91599" x2="80.8102" y2="62.1563"
      gradientUnits="userSpaceOnUse">
      <stop stop-color="#545CCE" />
      <stop offset="0.33" stop-color="#705FDA" />
      <stop offset="0.95" stop-color="#A1A8FF" />
    </linearGradient>
    <linearGradient id="paint8_linear_11_89" x1="526.451" y1="19.0811" x2="540.742" y2="31.1321"
      gradientUnits="userSpaceOnUse">
      <stop stop-color="#545CCE" />
      <stop offset="0.32" stop-color="#705FDA" />
      <stop offset="0.95" stop-color="#A1A8FF" />
    </linearGradient>
    <linearGradient id="paint9_linear_11_89" x1="553.025" y1="34.1266" x2="573.491" y2="45.1085"
      gradientUnits="userSpaceOnUse">
      <stop stop-color="#545CCE" />
      <stop offset="0.32" stop-color="#705FDA" />
      <stop offset="0.95" stop-color="#A1A8FF" />
    </linearGradient>
    <linearGradient id="paint10_linear_11_89" x1="583.344" y1="58.6068" x2="617.065" y2="58.6068"
      gradientUnits="userSpaceOnUse">
      <stop stop-color="#545CCE" />
      <stop offset="0.32" stop-color="#705FDA" />
      <stop offset="0.95" stop-color="#A1A8FF" />
    </linearGradient>
    <linearGradient id="paint11_linear_11_89" x1="682.159" y1="101.078" x2="621.918" y2="71.2449"
      gradientUnits="userSpaceOnUse">
      <stop stop-color="#705FDA" />
      <stop offset="0.07" stop-color="#615DD3" />
      <stop offset="0.15" stop-color="#575CCF" />
      <stop offset="0.26" stop-color="#545CCE" />
      <stop offset="0.4" stop-color="#5E66D4" />
      <stop offset="0.64" stop-color="#7981E6" />
      <stop offset="0.91" stop-color="#A1A8FF" />
    </linearGradient>
    <linearGradient id="paint12_linear_11_89" x1="698.855" y1="86.1517" x2="643.554" y2="117.284"
      gradientUnits="userSpaceOnUse">
      <stop stop-color="#545CCE" />
      <stop offset="0.36" stop-color="#705FDA" />
      <stop offset="0.95" stop-color="#A1A8FF" />
    </linearGradient>
    <linearGradient id="paint13_linear_11_89" x1="492.71" y1="158.998" x2="619.468" y2="158.998"
      gradientUnits="userSpaceOnUse">
      <stop stop-color="#545CCE" />
      <stop offset="0.33" stop-color="#705FDA" />
      <stop offset="0.95" stop-color="#A1A8FF" />
    </linearGradient>
    <linearGradient id="paint14_linear_11_89" x1="481.802" y1="106.767" x2="526.876" y2="97.7484"
      gradientUnits="userSpaceOnUse">
      <stop stop-color="#705FDA" />
      <stop offset="0.17" stop-color="#545CCE" />
      <stop offset="0.23" stop-color="#5F67D5" />
      <stop offset="0.41" stop-color="#7C83E7" />
      <stop offset="0.59" stop-color="#9097F4" />
      <stop offset="0.77" stop-color="#9CA3FC" />
      <stop offset="0.95" stop-color="#A1A8FF" />
    </linearGradient>
    <linearGradient id="paint15_linear_11_89" x1="189.919" y1="72.5308" x2="140.472" y2="106.717"
      gradientUnits="userSpaceOnUse">
      <stop offset="0.02" stop-color="#705FDA" />
      <stop offset="0.08" stop-color="#665ED6" />
      <stop offset="0.2" stop-color="#585CD0" />
      <stop offset="0.3" stop-color="#545CCE" />
      <stop offset="0.44" stop-color="#5F67D5" />
      <stop offset="0.7" stop-color="#7D84E8" />
      <stop offset="0.95" stop-color="#A1A8FF" />
    </linearGradient>
    <linearGradient id="paint16_linear_11_89" x1="269.453" y1="98.4429" x2="212.793" y2="97.1413"
      gradientUnits="userSpaceOnUse">
      <stop stop-color="#6E5ED9" />
      <stop offset="0.12" stop-color="#5A5CD0" />
      <stop offset="0.19" stop-color="#545CCE" />
      <stop offset="0.67" stop-color="#888FEF" />
      <stop offset="0.95" stop-color="#A1A8FF" />
    </linearGradient>
    <linearGradient id="paint17_linear_11_89" x1="313.565" y1="89.0472" x2="294.042" y2="71.1054"
      gradientUnits="userSpaceOnUse">
      <stop offset="0.05" stop-color="#705FDA" />
      <stop offset="0.14" stop-color="#5D5DD2" />
      <stop offset="0.2" stop-color="#545CCE" />
      <stop offset="0.32" stop-color="#6F76DF" />
      <stop offset="0.44" stop-color="#858CED" />
      <stop offset="0.58" stop-color="#949BF7" />
      <stop offset="0.73" stop-color="#9EA5FD" />
      <stop offset="0.95" stop-color="#A1A8FF" />
    </linearGradient>
    <linearGradient id="paint18_linear_11_89" x1="466.453" y1="67.3788" x2="469.294" y2="134.133"
      gradientUnits="userSpaceOnUse">
      <stop stop-color="#705FDA" />
      <stop offset="0.13" stop-color="#545CCE" />
      <stop offset="0.36" stop-color="#656DD9" />
      <stop offset="0.82" stop-color="#939AF6" />
      <stop offset="0.95" stop-color="#A1A8FF" />
    </linearGradient>
    <linearGradient id="paint19_linear_11_89" x1="394.642" y1="67.4715" x2="414.755" y2="125.042"
      gradientUnits="userSpaceOnUse">
      <stop stop-color="#705FDA" />
      <stop offset="0.07" stop-color="#635DD4" />
      <stop offset="0.17" stop-color="#575CCF" />
      <stop offset="0.27" stop-color="#545CCE" />
      <stop offset="0.43" stop-color="#6068D5" />
      <stop offset="0.71" stop-color="#8088EA" />
      <stop offset="0.95" stop-color="#A1A8FF" />
    </linearGradient>
    <linearGradient id="paint20_linear_11_89" x1="388.237" y1="121.742" x2="341.657" y2="119.901"
      gradientUnits="userSpaceOnUse">
      <stop offset="0.17" stop-color="#705FDA" />
      <stop offset="0.36" stop-color="#545CCE" />
      <stop offset="0.95" stop-color="#A1A8FF" />
    </linearGradient>
    <linearGradient id="paint21_linear_11_89" x1="388.549" y1="90.7092" x2="340.676" y2="89.1602"
      gradientUnits="userSpaceOnUse">
      <stop offset="0.02" stop-color="#705FDA" />
      <stop offset="0.27" stop-color="#545CCE" />
      <stop offset="0.34" stop-color="#5E66D4" />
      <stop offset="0.6" stop-color="#828AEB" />
      <stop offset="0.81" stop-color="#989FF9" />
      <stop offset="0.95" stop-color="#A1A8FF" />
    </linearGradient>
    <clipPath id="clip0_11_89">
      <rect width="689" height="196" fill="white" />
    </clipPath>
  </defs>
</svg>
