<svg viewBox="0 0 310 69" fill="none" xmlns="http://www.w3.org/2000/svg">
  <path
    d="M61.588 14.7004C48.8417 14.7004 40.6022 22.4731 40.6022 34.5071C40.6022 46.5411 48.8358 54.3138 61.588 54.3138C74.3402 54.3138 82.5678 46.5411 82.5678 34.5071C82.5678 22.4731 74.3342 14.7004 61.588 14.7004ZM61.588 46.8566C52.8662 46.8566 47.8654 42.3572 47.8654 34.5071C47.8654 26.6571 52.8662 22.1577 61.588 22.1577C70.3097 22.1577 75.3106 26.6571 75.3106 34.5071C75.3106 42.3572 70.3097 46.8566 61.588 46.8566Z"
    fill="#E1D4FF" />
  <path
    d="M111.43 16.093C110.799 15.5574 109.829 14.8611 108.513 14.3671C107.769 14.0874 107.084 13.9386 106.513 13.8552C105.774 13.6886 104.929 13.5339 103.458 13.5339C98.8327 13.5339 95.0761 14.7837 92.2244 17.2595L92.1172 14.3195H85.2113V54.7006H92.4744V34.5725C92.4744 26.1035 96.5823 21.0507 103.458 21.0507C104.34 21.0507 105.244 21.1697 105.495 21.2113L107.423 21.5327L111.436 16.093H111.43Z"
    fill="#E1D4FF" />
  <path
    d="M126.439 13.528C114.627 13.528 106.691 21.9553 106.691 34.5012C106.691 40.5539 108.56 45.7377 112.103 49.4931C115.794 53.4092 121.045 55.4803 127.284 55.4803C132.702 55.4803 138.631 53.7365 142.805 50.9274L139.31 44.6366L138.917 44.6604C135.607 46.9399 131.695 48.0945 127.29 48.0945C119.854 48.0945 115.234 44.3748 114.276 37.7805H145.257L145.525 35.3939C145.561 35.0606 145.609 34.519 145.609 33.8584C145.609 21.8899 137.732 13.5339 126.45 13.5339L126.439 13.528ZM114.466 30.5137C115.58 24.7407 120.271 20.7829 126.439 20.7829C132.237 20.7829 136.547 24.5919 137.798 30.5137H114.472H114.466Z"
    fill="#E1D4FF" />
  <path
    d="M178.507 14.3135V33.9179C178.507 41.6906 174.375 46.3328 167.457 46.3328C160.123 46.3328 156.408 42.375 156.408 34.5666V14.3135H149.145V34.5725C149.145 46.309 156.14 53.5936 167.392 53.5936C171.762 53.5936 175.53 52.3914 178.441 50.1536C177.906 57.9978 174.197 61.2414 166.023 61.2414C163.457 61.2414 159.795 60.7712 157.408 59.7118L153.634 58.0454V65.9371L155.235 66.6453C157.789 67.7702 162.028 68.5022 166.023 68.5022C179.126 68.5022 185.77 61.6223 185.77 48.0468V14.3135H178.507Z"
    fill="#E1D4FF" />
  <path
    d="M190.706 68.1274C190.033 68.1274 189.045 68.05 188.271 67.8298L186.318 67.2703V60.3785L189.39 60.8189C189.658 60.8546 189.902 60.8546 190.116 60.8546C191.474 60.8546 191.795 60.8546 191.795 57.9383V13.8434H199.07V57.9383C199.07 64.3184 195.945 68.1274 190.706 68.1274ZM191.015 11.5997V1H199.856V11.5997H191.015Z"
    fill="#B284FF" />
  <path
    d="M189.009 65.1814V63.4197C189.467 63.4852 189.854 63.4852 190.116 63.4852C193.575 63.4852 194.486 61.658 194.486 57.8788V16.4799H196.379V57.8788C196.379 63.1578 194.099 65.3778 190.706 65.3778C190.182 65.3778 189.467 65.3123 189.009 65.1814ZM197.159 8.85007H193.7V3.63058H197.159V8.85007Z"
    fill="#E1D4FF" />
  <path
    d="M243.417 55.0875C240.869 55.0875 237.023 54.296 235.243 49.9454C231.945 53.2723 227.432 55.0875 222.157 55.0875C210.56 55.0875 202.767 46.6423 202.767 34.0727C202.767 21.503 210.691 13.0578 222.479 13.0578C226.974 13.0578 231.159 14.3612 234.576 16.7477L234.749 13.8374H241.673V44.3033C241.673 47.8088 242.387 47.8088 243.679 47.8088C244.53 47.8088 245.173 47.6303 245.578 47.2851L250.019 43.4761V52.7962L248.894 53.5996C247.894 54.3138 245.929 55.0816 243.417 55.0816V55.0875ZM222.479 20.3365C214.698 20.3365 210.233 25.3418 210.233 34.0786C210.233 42.8155 214.799 47.8207 222.152 47.8207C229.504 47.8207 234.267 42.4286 234.267 34.0786V26.5321C231.546 22.5862 227.289 20.3365 222.479 20.3365Z"
    fill="#B284FF" />
  <path
    d="M247.335 49.3324V51.4214C246.876 51.7487 245.507 52.3974 243.423 52.3974C240.095 52.3974 236.964 50.8322 236.964 44.1843V42.2917C234.874 47.7671 230.117 52.3974 222.158 52.3974C211.918 52.3974 205.458 45.0949 205.458 34.0727C205.458 23.0504 211.656 15.7538 222.479 15.7538C228.742 15.7538 233.892 18.6225 236.958 22.7945V22.0744L237.285 16.5335H238.982V44.3093C238.982 48.3504 240.089 50.5048 243.679 50.5048C245.179 50.5048 246.418 50.112 247.335 49.3324ZM236.964 34.0727V25.7286C233.963 20.9019 228.748 17.6464 222.485 17.6464C212.9 17.6464 207.548 24.2288 207.548 34.0786C207.548 43.9284 213.418 50.5108 222.158 50.5108C231.421 50.5108 236.964 43.3392 236.964 34.0786V34.0727Z"
    fill="#E1D4FF" />
  <path
    d="M33.6011 44.7319C29.8087 47.535 25.0877 48.1242 21.7954 48.1242C13.4785 48.1242 8.31096 42.9107 8.31096 34.5131C8.31096 26.1155 13.8476 20.9019 22.0812 20.9019C25.9033 20.9019 29.9099 22.0922 32.8033 24.0919L35.3037 25.8179L40.0903 19.664L37.691 18.1344C31.9222 14.4683 26.0581 13.6946 22.1586 13.6946C8.9063 13.6886 0 22.0565 0 34.5071C0 40.6551 2.06583 45.8686 5.96532 49.5943C9.89457 53.3437 15.3955 55.3256 21.8669 55.3256C28.3382 55.3256 34.381 53.5342 38.5543 50.5346L40.6023 49.0586L36.2503 42.7678L33.5951 44.7319H33.6011Z"
    fill="#E1D4FF" />
  <path
    d="M255.711 25.3298C255.711 22.7647 257.688 21.0805 260.545 21.0805C263.403 21.0805 265.457 22.8362 265.457 25.4013C265.457 27.9664 263.403 29.7221 260.545 29.7221C257.688 29.7221 255.711 27.889 255.711 25.3298ZM255.711 43.5713C255.711 41.0062 257.688 39.3219 260.545 39.3219C263.403 39.3219 265.457 41.0776 265.457 43.6427C265.457 46.2078 263.403 47.9635 260.545 47.9635C257.688 47.9635 255.711 46.1305 255.711 43.5713Z"
    fill="url(#paint0_linear_113_662)" />
  <path
    d="M255.711 25.3298C255.711 22.7647 257.688 21.0805 260.545 21.0805C263.403 21.0805 265.457 22.8362 265.457 25.4013C265.457 27.9664 263.403 29.7221 260.545 29.7221C257.688 29.7221 255.711 27.889 255.711 25.3298V25.3298ZM255.711 43.5713C255.711 41.0062 257.688 39.3219 260.545 39.3219C263.403 39.3219 265.457 41.0776 265.457 43.6427C265.457 46.2078 263.403 47.9635 260.545 47.9635C257.688 47.9635 255.711 46.1305 255.711 43.5713V43.5713Z"
    stroke="#401F74" stroke-width="2" stroke-miterlimit="10" />
  <path
    d="M284.966 57.611C284.966 56.8789 285.186 56.1469 285.406 55.4149C286.579 52.1177 299.546 9.11788 300.719 5.3089C301.379 2.96399 302.255 1.57133 305.19 1.57133C308.125 1.57133 309 2.52358 309 4.05908C309 5.59457 308.268 6.98723 307.607 8.45131C306.654 10.7248 290.824 55.403 289.657 57.5991C289.145 58.6227 288.705 59.4322 287.091 59.4322C285.478 59.4322 284.966 58.4085 284.966 57.5991V57.611Z"
    fill="url(#paint1_linear_113_662)" />
  <path
    d="M284.966 57.611C284.966 56.8789 285.186 56.1469 285.406 55.4149C286.579 52.1177 299.546 9.11788 300.719 5.3089C301.379 2.96399 302.255 1.57133 305.19 1.57133C308.125 1.57133 309 2.52358 309 4.05908C309 5.59457 308.268 6.98723 307.607 8.45131C306.654 10.7248 290.824 55.403 289.657 57.5991C289.145 58.6227 288.705 59.4322 287.091 59.4322C285.478 59.4322 284.966 58.4085 284.966 57.5991V57.611Z"
    stroke="#401F74" stroke-width="2" stroke-miterlimit="10" />
  <path
    d="M268.162 57.789C268.162 57.057 268.383 56.325 268.603 55.5929C269.776 52.2958 282.742 9.29593 283.915 5.48695C284.576 3.14204 285.451 1.74938 288.386 1.74938C291.321 1.74938 292.196 2.70163 292.196 4.23712C292.196 5.77262 291.464 7.16528 290.803 8.62936C289.851 10.9028 274.021 55.581 272.854 57.7771C272.342 58.8008 271.901 59.6102 270.288 59.6102C268.674 59.6102 268.162 58.5865 268.162 57.7771V57.789Z"
    fill="url(#paint2_linear_113_662)" />
  <path
    d="M268.162 57.789C268.162 57.057 268.383 56.325 268.603 55.5929C269.776 52.2958 282.742 9.29593 283.915 5.48695C284.576 3.14204 285.451 1.74938 288.386 1.74938C291.321 1.74938 292.196 2.70163 292.196 4.23712C292.196 5.77262 291.464 7.16528 290.803 8.62936C289.851 10.9028 274.021 55.581 272.854 57.7771C272.342 58.8008 271.901 59.6102 270.288 59.6102C268.674 59.6102 268.162 58.5865 268.162 57.7771V57.789Z"
    stroke="#401F74" stroke-width="2" stroke-miterlimit="10" />
  <defs>
    <linearGradient id="paint0_linear_113_662" x1="259.89" y1="47.9397" x2="261.271" y2="21.1102"
      gradientUnits="userSpaceOnUse">
      <stop stop-color="#E1D4FF" />
      <stop offset="0.06" stop-color="#C2A2C4" />
      <stop offset="0.1" stop-color="#D6C57F" />
      <stop offset="0.18" stop-color="#E1D4FF" />
      <stop offset="0.24" stop-color="#90AFBE" />
      <stop offset="0.35" stop-color="#E1D4FF" />
      <stop offset="0.69" stop-color="#E1D4FF" />
      <stop offset="0.78" stop-color="#7BC998" />
      <stop offset="0.83" stop-color="#E1D4FF" />
      <stop offset="0.89" stop-color="#E669E5" />
      <stop offset="0.97" stop-color="#E1D4FF" />
    </linearGradient>
    <linearGradient id="paint1_linear_113_662" x1="295.492" y1="59.8785" x2="298.502" y2="1.2201"
      gradientUnits="userSpaceOnUse">
      <stop stop-color="#E1D4FF" />
      <stop offset="0.17" stop-color="#D6C57F" />
      <stop offset="0.3" stop-color="#E1D4FF" />
      <stop offset="0.33" stop-color="#C4D0E2" />
      <stop offset="0.39" stop-color="#9CCCBA" />
      <stop offset="0.44" stop-color="#84C9A1" />
      <stop offset="0.47" stop-color="#7BC998" />
      <stop offset="0.65" stop-color="#E1D4FF" />
      <stop offset="0.77" stop-color="#E669E5" />
      <stop offset="0.92" stop-color="#E1D4FF" />
    </linearGradient>
    <linearGradient id="paint2_linear_113_662" x1="278.688" y1="60.0566" x2="281.699" y2="1.39814"
      gradientUnits="userSpaceOnUse">
      <stop stop-color="#E1D4FF" />
      <stop offset="0.17" stop-color="#D6C57F" />
      <stop offset="0.3" stop-color="#E1D4FF" />
      <stop offset="0.33" stop-color="#C4D0E2" />
      <stop offset="0.39" stop-color="#9CCCBA" />
      <stop offset="0.44" stop-color="#84C9A1" />
      <stop offset="0.47" stop-color="#7BC998" />
      <stop offset="0.65" stop-color="#E1D4FF" />
      <stop offset="0.77" stop-color="#E669E5" />
      <stop offset="0.92" stop-color="#E1D4FF" />
    </linearGradient>
  </defs>
</svg>
