<svg viewBox="0 0 472 103" fill="none" xmlns="http://www.w3.org/2000/svg">
  <path
    d="M93.8768 20.8833C74.4481 20.8833 61.8888 32.731 61.8888 51.0741C61.8888 69.4172 74.439 81.2649 93.8768 81.2649C113.315 81.2649 125.856 69.4172 125.856 51.0741C125.856 32.731 113.306 20.8833 93.8768 20.8833V20.8833ZM93.8768 69.898C80.5825 69.898 72.9598 63.0398 72.9598 51.0741C72.9598 39.1085 80.5825 32.2502 93.8768 32.2502C107.171 32.2502 114.794 39.1085 114.794 51.0741C114.794 63.0398 107.171 69.898 93.8768 69.898Z"
    fill="#401F74" />
  <path
    d="M169.849 23.0063C168.888 22.1899 167.408 21.1285 165.403 20.3755C164.269 19.9491 163.225 19.7223 162.354 19.5953C161.229 19.3413 159.94 19.1055 157.699 19.1055C150.648 19.1055 144.922 21.0105 140.575 24.7844L140.411 20.3029H129.885V81.8548H140.956V51.1741C140.956 38.265 147.217 30.5631 157.699 30.5631C159.042 30.5631 160.421 30.7445 160.802 30.808L163.742 31.2979L169.859 23.0063H169.849Z"
    fill="#401F74" />
  <path
    d="M192.727 19.0962C174.723 19.0962 162.626 31.9418 162.626 51.0651C162.626 60.291 165.476 68.1925 170.875 73.9168C176.501 79.886 184.505 83.043 194.015 83.043C202.273 83.043 211.312 80.385 217.673 76.1031L212.346 66.5143L211.747 66.5505C206.702 70.025 200.74 71.785 194.024 71.785C182.69 71.785 175.648 66.1151 174.187 56.0636H221.412L221.82 52.4258C221.874 51.9178 221.947 51.0923 221.947 50.0853C221.947 31.842 209.941 19.1053 192.745 19.1053L192.727 19.0962ZM174.478 44.987C176.175 36.1874 183.325 30.1547 192.727 30.1547C201.565 30.1547 208.135 35.9606 210.041 44.987H174.487H174.478Z"
    fill="#401F74" />
  <path
    d="M272.093 20.2935V50.1758C272.093 62.0235 265.795 69.0995 255.251 69.0995C244.071 69.0995 238.408 63.0668 238.408 51.1646V20.2935H227.337V51.1737C227.337 69.0632 238 80.1671 255.151 80.1671C261.812 80.1671 267.556 78.3346 271.993 74.9236C271.177 86.8802 265.523 91.8243 253.064 91.8243C249.153 91.8243 243.572 91.1076 239.933 89.4928L234.179 86.9527V98.9819L236.62 100.061C240.513 101.776 246.975 102.892 253.064 102.892C273.037 102.892 283.164 92.4049 283.164 71.7122V20.2935H272.093Z"
    fill="#401F74" />
  <path
    d="M290.687 102.32C289.662 102.32 288.155 102.202 286.976 101.867L283.999 101.014V90.5089L288.682 91.1802C289.09 91.2347 289.462 91.2347 289.789 91.2347C291.858 91.2347 292.348 91.2347 292.348 86.7895V19.5769H303.437V86.7895C303.437 96.5144 298.673 102.32 290.687 102.32V102.32ZM291.159 16.1568V0H304.635V16.1568H291.159V16.1568Z"
    fill="#401F74" />
  <path
    d="M288.101 97.8299V95.1446C288.8 95.2444 289.39 95.2444 289.789 95.2444C295.061 95.2444 296.45 92.4594 296.45 86.6988V23.5957H299.335V86.6988C299.335 94.7455 295.86 98.1292 290.687 98.1292C289.889 98.1292 288.8 98.0295 288.101 97.8299V97.8299ZM300.524 11.9657H295.252V4.00977H300.524V11.9657V11.9657Z"
    fill="#C8C0D7" />
  <path
    d="M371.034 82.4441C367.15 82.4441 361.288 81.2376 358.575 74.6061C353.547 79.6773 346.669 82.4441 338.629 82.4441C320.951 82.4441 309.073 69.5713 309.073 50.4118C309.073 31.2522 321.151 18.3794 339.119 18.3794C345.97 18.3794 352.349 20.3661 357.558 24.0039L357.821 19.5678H368.375V66.0061C368.375 71.3494 369.464 71.3494 371.433 71.3494C372.731 71.3494 373.711 71.0772 374.328 70.5511L381.098 64.7451V78.9515L379.383 80.1762C377.858 81.2648 374.863 82.4351 371.034 82.4351V82.4441ZM339.119 29.4742C327.258 29.4742 320.452 37.1035 320.452 50.4208C320.452 63.7382 327.412 71.3675 338.619 71.3675C349.827 71.3675 357.086 63.1485 357.086 50.4208V38.9179C352.939 32.9033 346.451 29.4742 339.119 29.4742Z"
    fill="#401F74" />
  <path
    d="M377.005 73.6721V76.8563C376.306 77.3552 374.219 78.3441 371.043 78.3441C365.97 78.3441 361.197 75.9582 361.197 65.825V62.9402C358.012 71.2862 350.761 78.3441 338.628 78.3441C323.02 78.3441 313.174 67.213 313.174 50.4121C313.174 33.6112 322.621 22.4893 339.118 22.4893C348.665 22.4893 356.514 26.8618 361.188 33.2211V32.1235L361.687 23.6777H364.273V66.0155C364.273 72.1753 365.961 75.4592 371.433 75.4592C373.72 75.4592 375.607 74.8605 377.005 73.6721V73.6721ZM361.197 50.4121V37.6935C356.623 30.3363 348.674 25.3741 339.127 25.3741C324.517 25.3741 316.359 35.4074 316.359 50.4212C316.359 65.435 325.307 75.4683 338.628 75.4683C352.748 75.4683 361.197 64.5369 361.197 50.4212V50.4121Z"
    fill="#C8C0D7" />
  <path
    d="M51.2171 66.6593C45.4366 70.9321 38.2404 71.8302 33.2222 71.8302C20.5449 71.8302 12.6682 63.8834 12.6682 51.0831C12.6682 38.2829 21.1076 30.336 33.6578 30.336C39.4837 30.336 45.5909 32.1504 50.0011 35.1985L53.8125 37.8293L61.1085 28.4491L57.4514 26.1176C48.6581 20.5294 39.7196 19.3501 33.7757 19.3501C13.5756 19.341 0 32.0959 0 51.074C0 60.4452 3.14889 68.392 9.09277 74.0709C15.082 79.7861 23.467 82.807 33.3311 82.807C43.1952 82.807 52.4059 80.0764 58.7672 75.5043L61.8889 73.2545L55.2553 63.6656L51.2081 66.6593H51.2171Z"
    fill="#401F74" />
  <path
    d="M389.773 37.0856C389.773 33.1757 392.786 30.6084 397.142 30.6084C401.497 30.6084 404.628 33.2846 404.628 37.1945C404.628 41.1044 401.497 43.7806 397.142 43.7806C392.786 43.7806 389.773 40.9865 389.773 37.0856V37.0856ZM389.773 64.8906C389.773 60.9806 392.786 58.4133 397.142 58.4133C401.497 58.4133 404.628 61.0895 404.628 64.9994C404.628 68.9094 401.497 71.5855 397.142 71.5855C392.786 71.5855 389.773 68.7914 389.773 64.8906V64.8906Z"
    fill="url(#paint0_linear_75_301)" />
  <path
    d="M434.366 86.2908C434.366 85.1749 434.701 84.0591 435.037 82.9433C436.825 77.9175 456.589 12.3741 458.377 6.56816C459.384 2.99388 460.718 0.871094 465.192 0.871094C469.666 0.871094 471 2.32258 471 4.66309C471 7.0036 469.884 9.12639 468.876 11.358C467.425 14.8235 443.295 82.9251 441.517 86.2726C440.736 87.833 440.065 89.0667 437.605 89.0667C435.146 89.0667 434.366 87.5064 434.366 86.2726V86.2908Z"
    fill="url(#paint1_linear_75_301)" />
  <path
    d="M390 36.2141C390 32.3041 393.013 29.7368 397.369 29.7368C401.724 29.7368 404.855 32.413 404.855 36.3229C404.855 40.2328 401.724 42.909 397.369 42.909C393.013 42.909 390 40.1149 390 36.2141V36.2141ZM390 64.019C390 60.1091 393.013 57.5417 397.369 57.5417C401.724 57.5417 404.855 60.2179 404.855 64.1278C404.855 68.0378 401.724 70.7139 397.369 70.7139C393.013 70.7139 390 67.9198 390 64.019V64.019Z"
    fill="#401F74" />
  <path
    d="M434.593 85.4197C434.593 84.3038 434.929 83.188 435.264 82.0722C437.052 77.0464 456.817 11.503 458.604 5.69706C459.611 2.12279 460.945 0 465.419 0C469.893 0 471.227 1.45148 471.227 3.79199C471.227 6.13251 470.111 8.2553 469.104 10.487C467.652 13.9524 443.522 82.054 441.744 85.4015C440.963 86.9619 440.292 88.1956 437.832 88.1956C435.373 88.1956 434.593 86.6353 434.593 85.4015V85.4197Z"
    fill="#401F74" />
  <path
    d="M408.979 85.6907C408.979 84.5748 409.315 83.459 409.651 82.3432C411.439 77.3174 431.203 11.774 432.991 5.96806C433.998 2.39379 435.332 0.270996 439.806 0.270996C444.28 0.270996 445.614 1.72248 445.614 4.06299C445.614 6.4035 444.498 8.52629 443.49 10.7579C442.038 14.2234 417.909 82.325 416.13 85.6725C415.35 87.2329 414.678 88.4666 412.219 88.4666C409.76 88.4666 408.979 86.9063 408.979 85.6725V85.6907Z"
    fill="#401F74" />
  <path
    d="M408.752 86.5622C408.752 85.4464 409.088 84.3306 409.424 83.2148C411.212 78.189 430.976 12.6456 432.764 6.83964C433.771 3.26537 435.105 1.14258 439.579 1.14258C444.053 1.14258 445.387 2.59406 445.387 4.93457C445.387 7.27509 444.27 9.39788 443.263 11.6295C441.811 15.0949 417.682 83.1966 415.903 86.5441C415.123 88.1044 414.451 89.3382 411.992 89.3382C409.533 89.3382 408.752 87.7779 408.752 86.5441V86.5622Z"
    fill="#401F74" />
</svg>
