<svg viewBox="0 0 614 135" fill="none" xmlns="http://www.w3.org/2000/svg">
  <g clip-path="url(#clip0_103_218)">
    <path
      d="M122.09 34.81C98.29 34.81 82.91 49.33 82.91 71.81C82.91 94.29 98.29 108.8 122.09 108.8C145.89 108.8 161.27 94.28 161.27 71.81C161.27 49.34 145.89 34.81 122.09 34.81ZM122.09 94.87C105.81 94.87 96.47 86.46 96.47 71.8C96.47 57.14 105.81 48.73 122.09 48.73C138.37 48.73 147.71 57.14 147.71 71.8C147.71 86.46 138.37 94.87 122.09 94.87Z"
      fill="#E1D4FF" />
    <path
      d="M219.58 36.67C218.4 35.67 216.59 34.37 214.13 33.45C212.74 32.93 211.46 32.65 210.39 32.49C209.01 32.18 207.43 31.88 204.68 31.88C196.04 31.88 189.02 34.21 183.7 38.84L183.5 33.34H170.61V108.79H184.17V71.19C184.17 55.37 191.84 45.93 204.69 45.93C206.33 45.93 208.02 46.15 208.49 46.23L212.09 46.83L219.59 36.67H219.58Z"
      fill="#E1D4FF" />
    <path
      d="M255.78 30.43C233.72 30.43 218.91 46.18 218.91 69.61C218.91 80.91 222.4 90.6 229.01 97.61C235.9 104.93 245.71 108.79 257.36 108.79C267.48 108.79 278.55 105.53 286.34 100.28L279.81 88.53L279.07 88.57C272.89 92.82 265.59 94.98 257.35 94.98C243.47 94.98 234.83 88.03 233.05 75.71H290.9L291.4 71.25C291.47 70.62 291.55 69.62 291.55 68.39C291.55 46.03 276.84 30.42 255.77 30.42L255.78 30.43ZM233.42 62.16C235.5 51.38 244.26 43.99 255.78 43.99C266.61 43.99 274.66 51.1 276.99 62.16H233.43H233.42Z"
      fill="#E1D4FF" />
    <path
      d="M354.72 33.13V69.76C354.72 84.28 347.01 92.95 334.08 92.95C320.39 92.95 313.44 85.56 313.44 70.97V33.12H299.88V70.97C299.88 92.89 312.94 106.51 333.96 106.51C342.12 106.51 349.15 104.26 354.59 100.08C353.59 114.73 346.66 120.79 331.4 120.79C326.61 120.79 319.77 119.91 315.31 117.94L308.26 114.83V129.57L311.25 130.89C316.02 133 323.93 134.36 331.39 134.36C355.86 134.36 368.26 121.5 368.26 96.15V33.14H354.7L354.72 33.13Z"
      fill="#E1D4FF" />
    <path
      d="M382.81 134.35C381.56 134.35 379.7 134.2 378.26 133.79L374.62 132.75V119.88L380.36 120.7C380.86 120.77 381.32 120.77 381.72 120.77C384.25 120.77 384.85 120.77 384.85 115.32V32.95H398.43V115.32C398.43 127.24 392.59 134.35 382.81 134.35ZM383.39 28.75V8.96H399.9V28.76H383.39V28.75Z"
      fill="#B284FF" />
    <path
      d="M379.64 128.85V125.56C380.49 125.68 381.22 125.68 381.71 125.68C388.17 125.68 389.87 122.27 389.87 115.21V37.87H393.4V115.21C393.4 125.08 389.14 129.22 382.8 129.22C381.83 129.22 380.49 129.1 379.63 128.85H379.64ZM394.86 23.62H388.4V13.88H394.86V23.62Z"
      fill="#E1D4FF" />
    <path
      d="M482.13 108.8C477.37 108.8 470.19 107.32 466.86 99.2C460.7 105.41 452.28 108.8 442.42 108.8C420.76 108.8 406.21 93.03 406.21 69.55C406.21 46.07 421 30.3 443.03 30.3C451.43 30.3 459.24 32.74 465.62 37.2L465.94 31.76H478.87V88.67C478.87 95.22 480.2 95.22 482.61 95.22C484.21 95.22 485.4 94.89 486.16 94.24L494.46 87.13V104.54L492.36 106.04C490.49 107.38 486.82 108.8 482.13 108.8ZM443.03 43.88C428.5 43.88 420.16 53.23 420.16 69.55C420.16 85.87 428.69 95.22 442.42 95.22C456.15 95.22 465.04 85.15 465.04 69.55V55.46C459.96 48.09 452.01 43.89 443.03 43.89V43.88Z"
      fill="#B284FF" />
    <path
      d="M489.44 98.05V101.95C488.59 102.56 486.03 103.78 482.13 103.78C475.92 103.78 470.07 100.86 470.07 88.43V84.9C466.17 95.13 457.28 103.78 442.42 103.78C423.3 103.78 411.24 90.14 411.24 69.55C411.24 48.96 422.81 35.33 443.03 35.33C454.72 35.33 464.34 40.69 470.07 48.48V47.14L470.68 36.79H473.85V88.68C473.85 96.23 475.92 100.25 482.62 100.25C485.42 100.25 487.74 99.52 489.44 98.06V98.05ZM470.07 69.55V53.96C464.47 44.95 454.72 38.86 443.03 38.86C425.13 38.86 415.14 51.16 415.14 69.55C415.14 87.94 426.1 100.24 442.42 100.24C459.72 100.24 470.07 86.84 470.07 69.55Z"
      fill="#E1D4FF" />
    <path
      d="M62.25 89.56C55.03 94.61 46.19 95.48 40.05 95.32C24.53 94.92 15.13 84.93 15.54 69.25C15.95 53.57 26.53 44.1 41.91 44.5C49.04 44.68 56.47 47.1 61.77 50.97L66.35 54.31L75.58 43.05L71.17 40.08C60.58 32.95 49.67 31.23 42.39 31.04C17.65 30.4 0.619985 45.59 0.019985 68.84C-0.280015 80.32 3.31998 90.16 10.43 97.3C17.59 104.49 27.76 108.46 39.83 108.77C51.9 109.08 63.28 106.03 71.22 100.63L75.12 97.98L67.3 86.02L62.25 89.56Z"
      fill="#E1D4FF" />
    <path
      d="M532.4 104.68C532.4 103.31 532.81 101.94 533.22 100.57C535.41 94.41 559.63 14.09 561.82 6.98C563.05 2.6 564.69 0 570.17 0C575.65 0 577.29 1.78 577.29 4.65C577.29 7.52 575.92 10.12 574.69 12.86C572.91 17.1 543.35 100.57 541.17 104.67C540.21 106.59 539.39 108.09 536.38 108.09C533.37 108.09 532.41 106.17 532.41 104.67L532.4 104.68Z"
      fill="#B284FF" />
    <path
      d="M568.61 104.73C568.61 103.36 569.02 101.99 569.43 100.62C571.62 94.46 595.84 14.14 598.03 7.03C599.26 2.65 600.9 0.0500031 606.38 0.0500031C611.85 0.0500031 613.5 1.83 613.5 4.7C613.5 7.57 612.13 10.17 610.9 12.91C609.12 17.15 579.56 100.62 577.38 104.72C576.42 106.64 575.6 108.14 572.59 108.14C569.58 108.14 568.62 106.22 568.62 104.72L568.61 104.73Z"
      fill="#B284FF" />
    <path
      d="M501.79 54.48C501.79 49.69 505.48 46.54 510.82 46.54C516.16 46.54 519.99 49.82 519.99 54.61C519.99 59.4 516.16 62.68 510.82 62.68C505.48 62.68 501.79 59.26 501.79 54.47V54.48ZM501.79 88.55C501.79 83.76 505.48 80.61 510.82 80.61C516.16 80.61 519.99 83.89 519.99 88.68C519.99 93.47 516.16 96.75 510.82 96.75C505.48 96.75 501.79 93.33 501.79 88.54V88.55Z"
      fill="#B284FF" />
  </g>
  <defs>
    <clipPath id="clip0_103_218">
      <rect width="613.49" height="134.35" fill="white" />
    </clipPath>
  </defs>
</svg>
